<svg width="94" height="91" viewBox="0 0 94 91" fill="none" xmlns="http://www.w3.org/2000/svg">
<path d="M45.2085 76.0509L21.9025 68.5733C19.4398 67.7852 18.125 65.2569 18.9593 62.9304C19.7935 60.6039 22.4698 59.3619 24.9259 60.15L48.2319 67.6276C50.6946 68.4157 52.0095 70.944 51.1752 73.2642C50.3409 75.597 47.6713 76.8454 45.2085 76.0509Z" stroke="#4D2C5E" stroke-opacity="0.1" stroke-width="3" stroke-miterlimit="10"/>
<path d="M42.1451 84.5752L18.8391 77.0976C16.3763 76.3095 15.0615 73.7812 15.8958 71.461C16.73 69.1345 19.4064 67.8924 21.8691 68.6805L45.1751 76.1518C47.6379 76.9399 48.9526 79.4682 48.1184 81.7947C47.2774 84.1213 44.6078 85.3633 42.1451 84.5752Z" stroke="#4D2C5E" stroke-opacity="0.1" stroke-width="3" stroke-miterlimit="10"/>
<path d="M21.4286 37.156C21.4553 37.2316 21.4753 37.301 21.502 37.3767C22.0226 38.9466 25.0927 48.8957 23.8113 59.9356L48.8125 67.7285C54.7391 58.1387 63.4755 51.8779 64.8837 50.907C64.9505 50.8628 65.0172 50.8187 65.0773 50.7746C65.7581 50.3143 66.4188 49.8225 67.0595 49.2992C70.8237 46.2287 73.787 42.1873 75.4555 37.4082C80.3743 23.3356 72.2853 8.15968 57.3887 3.51296C42.4921 -1.13376 26.4275 6.5078 21.5087 20.5804C19.8335 25.3658 19.6667 30.2773 20.7612 34.861C20.9481 35.6302 21.1683 36.3994 21.4286 37.156Z" stroke="#4D2C5E" stroke-opacity="0.1" stroke-width="3" stroke-miterlimit="10"/>
<path d="M20.114 77.6145C19.8337 82.2801 22.8771 86.7251 27.8026 88.2635C32.6614 89.7766 37.8338 87.9798 40.5835 84.1779L20.114 77.6145Z" stroke="#4D2C5E" stroke-opacity="0.1" stroke-width="3" stroke-miterlimit="10"/>
<path d="M31.6398 62.2495L39.0681 40.983C39.8023 38.8898 38.5942 36.6327 36.3784 35.9391C34.1626 35.2456 31.7733 36.3868 31.0391 38.48C30.305 40.5732 31.513 42.8304 33.7288 43.5239L42.6454 46.3044" stroke="#4D2C5E" stroke-opacity="0.1" stroke-width="3" stroke-miterlimit="10"/>
<path d="M41.4375 65.3075L48.8658 44.0411C49.5999 41.9478 51.9893 40.8129 54.2051 41.5002C56.4209 42.1937 57.6222 44.4509 56.8948 46.5441C56.1606 48.6373 53.7713 49.7722 51.5555 49.085L42.6388 46.3045" stroke="#4D2C5E" stroke-opacity="0.1" stroke-width="3" stroke-miterlimit="10"/>
<path d="M80.7349 44.7344L88.2633 47.0847" stroke="#4D2C5E" stroke-opacity="0.1" stroke-width="3" stroke-miterlimit="10" stroke-linecap="round"/>
<path d="M84.1851 35.7745L92.0271 34.6592" stroke="#4D2C5E" stroke-opacity="0.1" stroke-width="3" stroke-miterlimit="10" stroke-linecap="round"/>
<path d="M75.4688 52.4202L81.0617 57.7289" stroke="#4D2C5E" stroke-opacity="0.1" stroke-width="3" stroke-miterlimit="10" stroke-linecap="round"/>
<path d="M10.8096 22.9307L3.28125 20.5867" stroke="#4D2C5E" stroke-opacity="0.1" stroke-width="3" stroke-miterlimit="10" stroke-linecap="round"/>
<path d="M13.6866 13.7899L8.09375 8.4812" stroke="#4D2C5E" stroke-opacity="0.1" stroke-width="3" stroke-miterlimit="10" stroke-linecap="round"/>
<path d="M10.2026 32.0679L2.36719 33.1832" stroke="#4D2C5E" stroke-opacity="0.1" stroke-width="3" stroke-miterlimit="10" stroke-linecap="round"/>
</svg>
